<svg width="41" height="44" viewBox="0 0 41 44" fill="none" xmlns="http://www.w3.org/2000/svg">
<path d="M40.4199 19.476C40.4199 15.8606 39.4202 12.3871 37.6054 9.39057C38.0474 8.72711 38.6866 8.08881 39.601 7.74693C39.9266 7.62507 40.137 7.32106 40.137 6.97219C40.137 6.62332 39.9266 6.3193 39.6009 6.19736C37.8936 5.55906 37.1445 3.88694 36.85 2.9471C36.7414 2.60028 36.4239 2.36713 36.06 2.36713C35.6961 2.36713 35.3787 2.6001 35.27 2.94701C35.0885 3.5263 34.7339 4.38342 34.0893 5.10555C33.3716 4.44943 32.6012 3.84132 31.7793 3.29008C31.4858 3.09326 31.0885 3.17163 30.8919 3.46499C30.695 3.75834 30.7733 4.15573 31.0668 4.35238C31.7835 4.83309 32.4576 5.36096 33.0892 5.9278C32.9121 6.0303 32.7226 6.12138 32.5191 6.19753C32.1935 6.31939 31.9832 6.6234 31.9832 6.97227C31.9832 7.32114 32.1935 7.62515 32.5192 7.7471C34.2265 8.3854 34.9756 10.0576 35.2701 10.9975C35.3788 11.3443 35.6963 11.5774 36.0601 11.5774C36.4239 11.5774 36.7413 11.3444 36.8501 10.9974C36.8723 10.9267 36.8974 10.8512 36.925 10.7728C38.358 13.4029 39.1408 16.3839 39.1408 19.476C39.1408 25.3101 36.3802 30.5108 32.0976 33.843L31.5049 28.3034C33.5076 25.9115 34.7149 22.8322 34.7149 19.4759C34.7149 15.0673 32.6314 11.1374 29.3985 8.61522C29.3985 8.61522 29.1143 5.95841 29.1143 5.95832C28.9614 4.52959 27.4497 3.652 26.1468 4.15897C25.884 4.26122 25.6419 4.41481 25.4378 4.60924C24.9786 5.04663 24.7887 5.62634 24.7593 6.24324C23.5473 5.89326 22.2673 5.70505 20.9442 5.70505C18.8004 5.70505 16.7701 6.19864 14.9592 7.07622L12.5161 6.75354C11.9249 6.67551 11.38 7.09302 11.3019 7.68442L11.0014 9.95954C8.63185 12.4341 7.17326 15.7875 7.17326 19.4759C7.17326 22.9861 8.49438 26.1928 10.6643 28.6275L9.95868 33.9697C5.58088 30.6436 2.74737 25.3854 2.74737 19.4759C2.74737 14.6153 4.64019 10.0458 8.07712 6.60873C11.5137 3.17189 16.0834 1.27916 20.944 1.27916C23.6011 1.27916 26.1618 1.83875 28.5549 2.94224C28.8759 3.09045 29.2557 2.95 29.4035 2.62927C29.5514 2.30846 29.4114 1.92855 29.0906 1.78068C26.5282 0.599073 23.7873 0 20.944 0C15.7418 0 10.8508 2.02585 7.17233 5.70437C3.4938 9.38289 1.46796 14.2737 1.46796 19.476C1.46796 24.6782 3.4938 29.5691 7.17241 33.2476C7.98101 34.0563 8.84956 34.7827 9.76595 35.4274L9.61927 36.5377C9.57305 36.8879 9.81942 37.2093 10.1696 37.2556C10.5201 37.3021 10.8411 37.0554 10.8874 36.7053L12.7366 22.7072L14.7432 22.9723L12.2781 41.6335C12.1184 42.8427 10.113 42.5677 10.2716 41.3667C10.2795 41.3072 10.4969 39.6617 10.4969 39.6617C10.5431 39.3116 10.2967 38.9901 9.94657 38.9438C9.5965 38.8977 9.27501 39.1439 9.2287 39.4941L9.00323 41.2009C8.92648 41.7819 9.08058 42.358 9.43721 42.8231C10.622 44.3684 13.2876 43.7787 13.5463 41.8011L14.0862 37.7138C16.2497 38.5262 18.5638 38.9522 20.944 38.9522C23.3597 38.9522 25.7081 38.5146 27.8994 37.6783C27.8994 37.6783 28.3341 41.7407 28.3347 41.7472C28.5449 43.7114 31.2078 44.3701 32.4172 42.8706C32.7851 42.4145 32.9534 41.8423 32.8911 41.2596L32.2571 35.3335C33.1239 34.7124 33.9466 34.0168 34.7156 33.2477C38.3941 29.569 40.4199 24.6782 40.4199 19.476V19.476ZM36.06 9.52547C35.633 8.64294 34.9399 7.64426 33.8382 6.97219C34.9401 6.29995 35.633 5.30143 36.06 4.4189C36.487 5.30152 37.18 6.30012 38.2817 6.97219C37.18 7.64443 36.487 8.64294 36.06 9.52547ZM33.4357 19.476C33.4357 22.0543 32.6499 24.4522 31.3059 26.4441L30.8205 21.907L29.5975 10.4767C31.9618 12.7509 33.4357 15.9442 33.4357 19.476V19.476ZM26.0443 6.1473C26.0565 5.89368 26.1758 5.65252 26.3728 5.49143C26.9208 5.04816 27.7684 5.40453 27.8423 6.09443C27.8427 6.09844 29.4806 21.4072 29.4806 21.4072L27.4679 21.6225L27.2817 19.8823C27.222 19.3237 26.9532 18.8158 26.525 18.4521L25.8364 17.867C25.6246 17.6872 25.5061 17.4141 25.5193 17.1366C25.5194 17.1365 26.0443 6.14738 26.0443 6.1473V6.1473ZM20.944 6.98421C22.2511 6.98421 23.5113 7.18726 24.6962 7.56145L24.2418 17.0754C24.2097 17.7465 24.4962 18.4068 25.0082 18.8418C25.398 19.1732 25.9316 19.4706 26.0099 20.0184L26.264 22.3945L27.1134 30.3325C25.2921 31.3716 23.1867 31.9676 20.944 31.9676C18.8102 31.9676 16.8003 31.4288 15.0415 30.4816L16.0951 22.5054L16.4887 19.5259C16.5087 19.3749 16.6077 19.2472 16.741 19.2006C17.9636 18.7727 18.8666 17.6411 19.0415 16.3176L20.0296 8.83737C20.0674 8.55092 19.9915 8.26678 19.8156 8.03739C19.6398 7.80799 19.3851 7.6608 19.0986 7.62302L17.6352 7.4297C18.6894 7.13959 19.7988 6.98421 20.944 6.98421V6.98421ZM11.9456 18.9259L11.5521 21.9054L10.8942 26.8861C9.36046 24.8116 8.45225 22.248 8.45225 19.476C8.45225 16.8325 9.27791 14.3784 10.6845 12.3574L10.3136 15.1648C10.1388 16.4883 10.717 17.8155 11.7865 18.5461C11.9032 18.6258 11.9657 18.7748 11.9456 18.9259V18.9259ZM12.904 21.4389L13.2138 19.0934C13.2976 18.459 13.0272 17.8444 12.508 17.4898C11.8331 17.0288 11.4694 16.1818 11.5817 15.3322L12.5439 8.04745L13.7385 8.2053L12.9346 14.2912C12.8884 14.6413 13.1347 14.9628 13.485 15.0091C13.5134 15.0128 13.5416 15.0146 13.5695 15.0146C13.8855 15.0146 14.1603 14.7804 14.2028 14.4587L15.0067 8.37278L16.2728 8.54001L15.4689 14.6259C15.4226 14.9761 15.669 15.2975 16.0192 15.3438C16.0476 15.3475 16.0759 15.3493 16.1038 15.3493C16.4198 15.3493 16.6946 15.1151 16.737 14.7934L17.5409 8.70741L18.7355 8.86517L17.7732 16.1499C17.661 16.9995 17.0899 17.723 16.3183 17.993C15.725 18.2007 15.3042 18.7238 15.2205 19.3583L14.9106 21.7037L12.904 21.4389ZM20.944 37.6729C18.5851 37.6729 16.3301 37.2204 14.2598 36.3997L14.8637 31.8278C16.6987 32.7349 18.7624 33.2469 20.944 33.2469C23.2197 33.2469 25.3674 32.6905 27.2607 31.709L27.757 36.3473C25.6514 37.2007 23.3521 37.6729 20.944 37.6729ZM31.4216 42.0673C31.2088 42.3312 30.9145 42.3913 30.6136 42.4233C30.1114 42.4769 29.6604 42.1126 29.6066 41.611L27.6039 22.8944L29.6167 22.6791L31.6192 41.3956C31.6452 41.6385 31.575 41.8771 31.4216 42.0673Z" fill="#2E4765"/>
<path d="M6.64386 35.7121C5.34142 35.2252 4.76699 33.9397 4.54041 33.2167C4.43679 32.8861 4.13423 32.664 3.78749 32.664C3.44075 32.664 3.13819 32.8861 3.03458 33.2167V33.2168C2.80808 33.9397 2.23357 35.2251 0.931385 35.712C0.620634 35.8281 0.419891 36.118 0.419891 36.4506C0.419891 36.7832 0.620634 37.0731 0.931129 37.1891C2.23357 37.6761 2.808 38.9615 3.03458 39.6846C3.13819 40.0152 3.44075 40.2373 3.78749 40.2373C4.13423 40.2373 4.43679 40.0152 4.54041 39.6845C4.7669 38.9615 5.34133 37.676 6.6436 37.1892C6.95435 37.0731 7.15509 36.7832 7.15509 36.4506C7.15509 36.118 6.95426 35.8282 6.64386 35.7121V35.7121ZM3.78749 38.1867C3.46062 37.5792 2.97633 36.9326 2.26811 36.4507C2.97642 35.9689 3.46062 35.3223 3.78749 34.7147C4.11436 35.3222 4.59865 35.9688 5.30688 36.4507C4.59865 36.9325 4.11445 37.5791 3.78749 38.1867Z" fill="#2E4765"/>
</svg>
