<svg width="54" height="49" viewBox="0 0 54 49" fill="none" xmlns="http://www.w3.org/2000/svg">
<path d="M24.89 46.1411C23.7368 44.8481 20.8571 42.3275 18.4908 40.5397C11.4797 35.2425 10.5255 34.4759 7.67882 31.8534C2.43081 27.0187 0.202068 22.1615 0.209706 15.5754C0.213432 12.3603 0.432468 11.1217 1.33239 9.22657C2.85919 6.01135 5.10823 3.6222 7.98363 2.16098C10.0202 1.12605 11.0246 0.666247 14.4255 0.647436C17.9831 0.627766 18.732 1.04276 20.8247 2.19297C23.3718 3.59298 25.9936 6.58502 26.5356 8.71044L26.8703 10.0232L27.6957 8.21524C32.3603 -2.00129 47.2528 -1.84844 52.4355 8.46917C54.0795 11.7422 54.26 18.7309 52.8022 22.6677C50.9004 27.803 47.3285 31.7181 39.0714 37.7175C33.6563 41.652 27.5276 47.6051 27.1009 48.4412C26.6057 49.4118 27.0773 48.5933 24.89 46.1411Z" fill="#FF0043"/>
</svg>
