<svg id="Layer_1" height="512" viewBox="0 0 512 512" width="512" xmlns="http://www.w3.org/2000/svg" data-name="Layer 1"><path d="m157.01 332.659a24.723 24.723 0 0 0 -34.361 5.906 24.633 24.633 0 1 0 34.362-5.906zm-3.943 27.383a12.7 12.7 0 0 1 -17.653 3.048 12.584 12.584 0 0 1 -2.978-17.581 12.71 12.71 0 0 1 10.383-5.354 12.581 12.581 0 0 1 10.248 19.887z"/><path d="m487.424 442.593c-.076-.173-.162-.342-.254-.508l-191.865-341.742a33.756 33.756 0 0 0 3.427-6.858 34.162 34.162 0 0 0 -2.118-27.509l-.918-1.748a33.624 33.624 0 0 0 -43.246-15.016c-68.917 30.353-121.873 71.126-157.395 121.188a392.821 392.821 0 0 0 -71.819 201.2 33.25 33.25 0 0 0 28.133 35.168 33.66 33.66 0 0 0 5.291.42 33.2 33.2 0 0 0 21.964-8.3 33.652 33.652 0 0 0 8.334-11.188l383.323 77.775a6.227 6.227 0 0 0 .665.1c.5.044 1 .066 1.492.066a16.421 16.421 0 0 0 14.986-23.044zm-56.545-76.258 19.761 35.2c-.456.265-.922.516-1.4.747a20.186 20.186 0 0 1 -18.361-35.944zm-154.653 47.522a40.967 40.967 0 0 1 12.552-14.379 41.212 41.212 0 0 1 65.18 30.151zm199.774 37.92a4.368 4.368 0 0 1 -3.728 1.857l-106.184-21.544a53.3 53.3 0 0 0 -101.988-20.69l-174.117-35.331a34.417 34.417 0 0 0 .086-3.639c-1.694-56.56 15.1-111.38 48.554-158.532a265.785 265.785 0 0 1 35.671-40.724 6 6 0 1 0 -8.191-8.766 277.675 277.675 0 0 0 -37.266 42.546c-34.983 49.299-52.537 106.646-50.763 165.836a21.775 21.775 0 0 1 -9.355 18.632 21.438 21.438 0 0 1 -33.509-19.029 380.812 380.812 0 0 1 69.632-195.05c34.25-48.267 85.54-87.682 152.445-117.149a21.548 21.548 0 0 1 8.692-1.832 21.774 21.774 0 0 1 7.169 1.219 21.317 21.317 0 0 1 11.923 10.225l1 1.9a21.967 21.967 0 0 1 1.729 16.662 21.518 21.518 0 0 1 -14.455 14.3 269.189 269.189 0 0 0 -75.129 36.014 6.005 6.005 0 0 0 -.839 9.193 5.98 5.98 0 0 0 7.6.72 257.212 257.212 0 0 1 71.794-34.428 33.661 33.661 0 0 0 9.837-4.8l138.383 246.48a32.2 32.2 0 0 0 29.469 57.237q1.05-.507 2.056-1.087l20.023 35.667a4.311 4.311 0 0 1 -.539 4.113z"/><path d="m308.341 184.627a72.309 72.309 0 0 0 -100.5 17.292 71.809 71.809 0 0 0 58.5 113.48 72.289 72.289 0 0 0 59.065-30.44 71.844 71.844 0 0 0 -17.065-100.332zm7.279 93.388a60.29 60.29 0 0 1 -83.79 14.434 59.848 59.848 0 0 1 -14.2-83.586 60.286 60.286 0 0 1 49.26-25.389 59.828 59.828 0 0 1 48.73 94.541z"/><path d="m275.07 259.211-3.627-5.71a6 6 0 0 0 -10.006-.186l-3.837 5.571a6.057 6.057 0 0 0 -.559 1 10.012 10.012 0 0 0 1.974 10.98 9.977 9.977 0 0 0 7.043 3.071h.192a10.04 10.04 0 0 0 9.34-13.71 6.119 6.119 0 0 0 -.52-1.016z"/><path d="m258.18 227.668 3.628 5.63a5.833 5.833 0 0 0 4.953 2.7h.111a5.924 5.924 0 0 0 4.941-2.517l3.837-5.53a5.871 5.871 0 0 0 .558-.985 10.037 10.037 0 1 0 -18.548-.326 6.026 6.026 0 0 0 .52 1.028z"/><path d="m283.421 234.474a5.986 5.986 0 0 0 -1.021.526l-5.708 3.627a6 6 0 0 0 -.187 10l5.571 3.837a5.972 5.972 0 0 0 1 .558 10.04 10.04 0 1 0 .345-18.548z"/><path d="m259.345 243.3a6 6 0 0 0 -2.6-5.053l-5.571-3.836a6.088 6.088 0 0 0 -1-.559 10.01 10.01 0 0 0 -10.981 1.973 10.038 10.038 0 0 0 10.636 16.576 6.023 6.023 0 0 0 1.025-.521l5.709-3.627a6 6 0 0 0 2.782-4.953z"/><path d="m378.922 313.175a16.7 16.7 0 1 0 -26.283 20.625l14.608 18.616a16.705 16.705 0 1 0 26.284-20.625zm6.139 29.492a4.706 4.706 0 0 1 -8.373 2.342l-14.61-18.616a4.705 4.705 0 0 1 7.4-5.81l14.61 18.617a4.678 4.678 0 0 1 .973 3.467z"/><path d="m173.328 248.861a16.705 16.705 0 0 0 -33.011 5.149l3.647 23.381a16.705 16.705 0 0 0 33.011-5.149zm-9.058 28.73a4.706 4.706 0 0 1 -8.45-2.049l-3.646-23.382a4.705 4.705 0 0 1 9.3-1.45l3.646 23.382a4.676 4.676 0 0 1 -.85 3.499z"/><path d="m232.382 349.6a17.269 17.269 0 1 0 10.623 21.99 17.287 17.287 0 0 0 -10.623-21.99zm-.708 18.04a5.275 5.275 0 1 1 -3.241-6.709 5.276 5.276 0 0 1 3.241 6.706z"/><path d="m298.245 198.854a54.812 54.812 0 0 0 -76.181 13.106 54.443 54.443 0 0 0 44.349 86.032 54.8 54.8 0 0 0 44.773-23.073 54.472 54.472 0 0 0 -12.941-76.065zm3.154 69.121a42.8 42.8 0 0 1 -59.473 10.247 42.471 42.471 0 0 1 -10.075-59.322 42.8 42.8 0 0 1 34.966-18.023 42.458 42.458 0 0 1 34.583 67.098z"/><path d="m54.115 357.433a6.007 6.007 0 0 1 -5.915-7.033c.734-4.2 1.549-8.447 2.42-12.621a6 6 0 0 1 11.747 2.454c-.845 4.046-1.635 8.162-2.347 12.234a6 6 0 0 1 -5.905 4.966z"/><path d="m62.7 319.635a6 6 0 0 1 -5.779-7.623 393.413 393.413 0 0 1 58.134-121.612 6 6 0 0 1 9.786 6.945 381.467 381.467 0 0 0 -56.367 117.911 6 6 0 0 1 -5.774 4.379z"/></svg>